<svg width="1080" height="251" viewBox="0 0 1080 251" fill="none" xmlns="http://www.w3.org/2000/svg">
<rect y="0.5" width="1" height="250" fill="#424770" fill-opacity="0.06"/>
<rect x="270" y="0.5" width="1" height="250" fill="url(#paint0_linear_1342_44835)"/>
<rect x="540" y="0.5" width="1" height="250" fill="url(#paint1_linear_1342_44835)"/>
<rect x="810" y="0.5" width="1" height="250" fill="url(#paint2_linear_1342_44835)"/>
<rect x="1079" y="0.5" width="1" height="250" fill="#424770" fill-opacity="0.06"/>
<g clip-path="url(#clip0_1342_44835)">
<g clip-path="url(#clip1_1342_44835)">
<path d="M126.6 22.6501C126.613 23.7568 126.405 24.8551 125.987 25.8798C125.568 26.9046 124.949 27.8351 124.165 28.6164C123.381 29.3976 122.448 30.0138 121.422 30.4283C120.396 30.8429 119.297 31.0475 118.19 31.0301C117.084 31.0462 115.986 30.8406 114.961 30.4254C113.936 30.0102 113.004 29.3939 112.222 28.6128C111.439 27.8316 110.82 26.9016 110.402 25.8775C109.985 24.8534 109.777 23.756 109.79 22.6501C109.772 21.543 109.978 20.4438 110.394 19.4178C110.81 18.3918 111.428 17.4601 112.212 16.6781C112.996 15.8961 113.929 15.28 114.956 14.8662C115.983 14.4525 117.083 14.2498 118.19 14.2701C122.82 14.2701 126.59 17.7901 126.59 22.6501H126.6ZM122.91 22.6501C122.91 19.6301 120.72 17.5701 118.19 17.5701C115.65 17.5701 113.46 19.6301 113.46 22.6501C113.46 25.6301 115.65 27.7201 118.19 27.7201C120.72 27.7201 122.91 25.6201 122.91 22.6501Z" fill="#EA4335"/>
<path d="M144.73 22.65C144.743 23.7568 144.535 24.855 144.117 25.8798C143.698 26.9045 143.079 27.8351 142.295 28.6163C141.511 29.3976 140.578 30.0137 139.552 30.4283C138.526 30.8429 137.427 31.0475 136.32 31.03C135.214 31.0461 134.116 30.8405 133.091 30.4253C132.066 30.0102 131.134 29.3938 130.352 28.6127C129.569 27.8316 128.95 26.9015 128.532 25.8774C128.115 24.8533 127.907 23.7559 127.92 22.65C127.904 21.5433 128.11 20.4447 128.527 19.4193C128.943 18.394 129.562 17.4628 130.345 16.6811C131.129 15.8995 132.062 15.2832 133.088 14.869C134.114 14.4548 135.213 14.2511 136.32 14.27C140.95 14.27 144.72 17.79 144.72 22.65H144.73ZM141.05 22.65C141.05 19.63 138.85 17.57 136.32 17.57C133.78 17.57 131.59 19.63 131.59 22.65C131.59 25.63 133.79 27.72 136.32 27.72C138.86 27.72 141.05 25.62 141.05 22.65Z" fill="#FBBC05"/>
<path d="M162.1 14.77V29.82C162.1 36 158.45 38.53 154.14 38.53C152.55 38.5403 150.994 38.0756 149.67 37.1954C148.346 36.3153 147.316 35.0598 146.71 33.59L149.91 32.26C150.24 33.1195 150.819 33.8612 151.572 34.3902C152.325 34.9192 153.22 35.2116 154.14 35.23C156.9 35.23 158.61 33.53 158.61 30.33V29.12H158.48C157.927 29.7385 157.247 30.2289 156.485 30.5571C155.723 30.8852 154.899 31.0432 154.07 31.02C149.87 31.02 146.04 27.37 146.04 22.68C146.04 17.95 149.88 14.27 154.07 14.27C156.07 14.27 157.65 15.15 158.48 16.14H158.61V14.78H162.11L162.1 14.77ZM158.87 22.67C158.87 19.73 156.9 17.57 154.4 17.57C151.86 17.57 149.73 19.73 149.73 22.67C149.73 25.6 151.86 27.72 154.4 27.72C156.9 27.72 158.87 25.6 158.87 22.68V22.67Z" fill="#4285F4"/>
<path d="M167.86 5.95996V30.5H164.27V5.95996H167.86Z" fill="#34A853"/>
<path d="M181.85 25.4L184.71 27.3C183.944 28.4507 182.905 29.3931 181.685 30.0425C180.465 30.6918 179.102 31.0277 177.72 31.02C176.619 31.0351 175.526 30.828 174.506 30.4114C173.486 29.9947 172.561 29.3768 171.785 28.5947C171.01 27.8126 170.4 26.8822 169.992 25.8591C169.584 24.836 169.386 23.7412 169.41 22.64C169.41 17.66 172.99 14.26 177.31 14.26C181.66 14.26 183.79 17.72 184.48 19.59L184.86 20.55L173.66 25.18C174.004 25.9616 174.575 26.6216 175.299 27.0745C176.023 27.5275 176.867 27.7523 177.72 27.72C179.6 27.72 180.9 26.8 181.85 25.4ZM173.05 22.39L180.55 19.28C180.13 18.23 178.9 17.5 177.44 17.5C176.829 17.528 176.231 17.6773 175.678 17.9394C175.126 18.2014 174.632 18.5708 174.224 19.0261C173.816 19.4813 173.503 20.0133 173.303 20.5909C173.104 21.1685 173.021 21.7801 173.06 22.39H173.05Z" fill="#EA4335"/>
<path d="M96.2 20.47V16.9H108.18C108.29 17.52 108.35 18.25 108.35 19.05C108.35 21.71 107.62 25.01 105.27 27.36C102.99 29.74 100.07 31.01 96.2 31.01C89.03 31.01 83 25.17 83 18.01C83 10.83 89.03 5 96.2 5C100.17 5 103 6.56 105.12 8.59L102.61 11.09C100.892 9.43162 98.5879 8.51877 96.2 8.55C94.9629 8.54855 93.7379 8.79314 92.5962 9.26954C91.4545 9.74593 90.419 10.4446 89.5498 11.3249C88.6807 12.2053 87.9953 13.2496 87.5335 14.3973C87.0717 15.545 86.8428 16.773 86.86 18.01C86.86 23.25 90.96 27.47 96.2 27.47C97.4161 27.5203 98.6291 27.3149 99.7608 26.867C100.893 26.4192 101.918 25.7388 102.77 24.87C103.77 23.86 104.43 22.42 104.69 20.47H96.19H96.2Z" fill="#4285F4"/>
</g>
</g>
<g clip-path="url(#clip2_1342_44835)">
<g clip-path="url(#clip3_1342_44835)">
<path d="M396.6 20.6501C396.614 21.7568 396.405 22.8551 395.987 23.8798C395.568 24.9046 394.949 25.8351 394.165 26.6164C393.381 27.3976 392.448 28.0138 391.422 28.4283C390.396 28.8429 389.297 29.0475 388.19 29.0301C387.084 29.0462 385.986 28.8406 384.961 28.4254C383.936 28.0102 383.005 27.3939 382.222 26.6128C381.439 25.8316 380.82 24.9016 380.402 23.8775C379.985 22.8534 379.777 21.756 379.79 20.6501C379.772 19.543 379.978 18.4438 380.394 17.4178C380.81 16.3918 381.428 15.4601 382.212 14.6781C382.996 13.8961 383.929 13.28 384.956 12.8662C385.983 12.4525 387.083 12.2498 388.19 12.2701C392.82 12.2701 396.59 15.7901 396.59 20.6501H396.6ZM392.91 20.6501C392.91 17.6301 390.72 15.5701 388.19 15.5701C385.65 15.5701 383.46 17.6301 383.46 20.6501C383.46 23.6301 385.65 25.7201 388.19 25.7201C390.72 25.7201 392.91 23.6201 392.91 20.6501Z" fill="#EA4335"/>
<path d="M414.73 20.65C414.744 21.7568 414.535 22.855 414.117 23.8798C413.698 24.9045 413.079 25.8351 412.295 26.6163C411.511 27.3976 410.578 28.0137 409.552 28.4283C408.526 28.8429 407.427 29.0475 406.32 29.03C405.214 29.0461 404.116 28.8405 403.091 28.4253C402.066 28.0102 401.135 27.3938 400.352 26.6127C399.569 25.8316 398.95 24.9015 398.532 23.8774C398.115 22.8533 397.907 21.7559 397.92 20.65C397.904 19.5433 398.11 18.4447 398.527 17.4193C398.943 16.394 399.562 15.4628 400.345 14.6811C401.129 13.8995 402.062 13.2832 403.088 12.869C404.114 12.4548 405.213 12.2511 406.32 12.27C410.95 12.27 414.72 15.79 414.72 20.65H414.73ZM411.05 20.65C411.05 17.63 408.85 15.57 406.32 15.57C403.78 15.57 401.59 17.63 401.59 20.65C401.59 23.63 403.79 25.72 406.32 25.72C408.86 25.72 411.05 23.62 411.05 20.65Z" fill="#FBBC05"/>
<path d="M432.1 12.77V27.82C432.1 34 428.45 36.53 424.14 36.53C422.55 36.5403 420.994 36.0756 419.67 35.1954C418.346 34.3153 417.316 33.0598 416.71 31.59L419.91 30.26C420.24 31.1195 420.819 31.8612 421.572 32.3902C422.325 32.9192 423.22 33.2116 424.14 33.23C426.9 33.23 428.61 31.53 428.61 28.33V27.12H428.48C427.927 27.7385 427.247 28.2289 426.485 28.5571C425.723 28.8852 424.899 29.0432 424.07 29.02C419.87 29.02 416.04 25.37 416.04 20.68C416.04 15.95 419.88 12.27 424.07 12.27C426.07 12.27 427.65 13.15 428.48 14.14H428.61V12.78H432.11L432.1 12.77ZM428.87 20.67C428.87 17.73 426.9 15.57 424.4 15.57C421.86 15.57 419.73 17.73 419.73 20.67C419.73 23.6 421.86 25.72 424.4 25.72C426.9 25.72 428.87 23.6 428.87 20.68V20.67Z" fill="#4285F4"/>
<path d="M437.86 3.95996V28.5H434.27V3.95996H437.86Z" fill="#34A853"/>
<path d="M451.85 23.4L454.71 25.3C453.944 26.4507 452.905 27.3931 451.685 28.0425C450.465 28.6918 449.102 29.0277 447.72 29.02C446.619 29.0351 445.526 28.828 444.506 28.4114C443.486 27.9947 442.561 27.3768 441.785 26.5947C441.01 25.8126 440.4 24.8822 439.992 23.8591C439.584 22.836 439.386 21.7412 439.41 20.64C439.41 15.66 442.99 12.26 447.31 12.26C451.66 12.26 453.79 15.72 454.48 17.59L454.86 18.55L443.66 23.18C444.004 23.9616 444.575 24.6216 445.299 25.0745C446.023 25.5275 446.867 25.7523 447.72 25.72C449.6 25.72 450.9 24.8 451.85 23.4ZM443.05 20.39L450.55 17.28C450.13 16.23 448.9 15.5 447.44 15.5C446.829 15.528 446.231 15.6773 445.678 15.9394C445.126 16.2014 444.632 16.5708 444.224 17.0261C443.816 17.4813 443.503 18.0133 443.303 18.5909C443.104 19.1685 443.021 19.7801 443.06 20.39H443.05Z" fill="#EA4335"/>
<path d="M366.2 18.47V14.9H378.18C378.29 15.52 378.35 16.25 378.35 17.05C378.35 19.71 377.62 23.01 375.27 25.36C372.99 27.74 370.07 29.01 366.2 29.01C359.03 29.01 353 23.17 353 16.01C353 8.83 359.03 3 366.2 3C370.17 3 373 4.56 375.12 6.59L372.61 9.09C370.892 7.43162 368.588 6.51877 366.2 6.55C364.963 6.54855 363.738 6.79314 362.596 7.26954C361.455 7.74593 360.419 8.44461 359.55 9.32493C358.681 10.2053 357.995 11.2496 357.533 12.3973C357.072 13.545 356.843 14.773 356.86 16.01C356.86 21.25 360.96 25.47 366.2 25.47C367.416 25.5203 368.629 25.3149 369.761 24.867C370.893 24.4192 371.918 23.7388 372.77 22.87C373.77 21.86 374.43 20.42 374.69 18.47H366.19H366.2Z" fill="#4285F4"/>
</g>
</g>
<g clip-path="url(#clip4_1342_44835)">
<g clip-path="url(#clip5_1342_44835)">
<path d="M666.6 20.6501C666.614 21.7568 666.405 22.8551 665.987 23.8798C665.568 24.9046 664.949 25.8351 664.165 26.6164C663.381 27.3976 662.448 28.0138 661.422 28.4283C660.396 28.8429 659.297 29.0475 658.19 29.0301C657.084 29.0462 655.986 28.8406 654.961 28.4254C653.936 28.0102 653.005 27.3939 652.222 26.6128C651.439 25.8316 650.82 24.9016 650.402 23.8775C649.985 22.8534 649.777 21.756 649.79 20.6501C649.772 19.543 649.978 18.4438 650.394 17.4178C650.81 16.3918 651.428 15.4601 652.212 14.6781C652.996 13.8961 653.929 13.28 654.956 12.8662C655.983 12.4525 657.083 12.2498 658.19 12.2701C662.82 12.2701 666.59 15.7901 666.59 20.6501H666.6ZM662.91 20.6501C662.91 17.6301 660.72 15.5701 658.19 15.5701C655.65 15.5701 653.46 17.6301 653.46 20.6501C653.46 23.6301 655.65 25.7201 658.19 25.7201C660.72 25.7201 662.91 23.6201 662.91 20.6501Z" fill="#EA4335"/>
<path d="M684.73 20.65C684.743 21.7568 684.535 22.855 684.117 23.8798C683.698 24.9045 683.079 25.8351 682.295 26.6163C681.511 27.3976 680.578 28.0137 679.552 28.4283C678.526 28.8429 677.427 29.0475 676.32 29.03C675.214 29.0461 674.116 28.8405 673.091 28.4253C672.066 28.0102 671.134 27.3938 670.352 26.6127C669.569 25.8316 668.95 24.9015 668.532 23.8774C668.115 22.8533 667.907 21.7559 667.92 20.65C667.904 19.5433 668.11 18.4447 668.527 17.4193C668.943 16.394 669.562 15.4628 670.345 14.6811C671.129 13.8995 672.062 13.2832 673.088 12.869C674.114 12.4548 675.213 12.2511 676.32 12.27C680.95 12.27 684.72 15.79 684.72 20.65H684.73ZM681.05 20.65C681.05 17.63 678.85 15.57 676.32 15.57C673.78 15.57 671.59 17.63 671.59 20.65C671.59 23.63 673.79 25.72 676.32 25.72C678.86 25.72 681.05 23.62 681.05 20.65Z" fill="#FBBC05"/>
<path d="M702.1 12.77V27.82C702.1 34 698.45 36.53 694.14 36.53C692.55 36.5403 690.994 36.0756 689.67 35.1954C688.346 34.3153 687.316 33.0598 686.71 31.59L689.91 30.26C690.24 31.1195 690.819 31.8612 691.572 32.3902C692.325 32.9192 693.22 33.2116 694.14 33.23C696.9 33.23 698.61 31.53 698.61 28.33V27.12H698.48C697.927 27.7385 697.247 28.2289 696.485 28.5571C695.723 28.8852 694.899 29.0432 694.07 29.02C689.87 29.02 686.04 25.37 686.04 20.68C686.04 15.95 689.88 12.27 694.07 12.27C696.07 12.27 697.65 13.15 698.48 14.14H698.61V12.78H702.11L702.1 12.77ZM698.87 20.67C698.87 17.73 696.9 15.57 694.4 15.57C691.86 15.57 689.73 17.73 689.73 20.67C689.73 23.6 691.86 25.72 694.4 25.72C696.9 25.72 698.87 23.6 698.87 20.68V20.67Z" fill="#4285F4"/>
<path d="M707.86 3.95996V28.5H704.27V3.95996H707.86Z" fill="#34A853"/>
<path d="M721.85 23.4L724.71 25.3C723.944 26.4507 722.905 27.3931 721.685 28.0425C720.465 28.6918 719.102 29.0277 717.72 29.02C716.619 29.0351 715.526 28.828 714.506 28.4114C713.486 27.9947 712.561 27.3768 711.785 26.5947C711.01 25.8126 710.4 24.8822 709.992 23.8591C709.584 22.836 709.386 21.7412 709.41 20.64C709.41 15.66 712.99 12.26 717.31 12.26C721.66 12.26 723.79 15.72 724.48 17.59L724.86 18.55L713.66 23.18C714.004 23.9616 714.575 24.6216 715.299 25.0745C716.023 25.5275 716.867 25.7523 717.72 25.72C719.6 25.72 720.9 24.8 721.85 23.4ZM713.05 20.39L720.55 17.28C720.13 16.23 718.9 15.5 717.44 15.5C716.829 15.528 716.231 15.6773 715.678 15.9394C715.126 16.2014 714.632 16.5708 714.224 17.0261C713.816 17.4813 713.503 18.0133 713.303 18.5909C713.104 19.1685 713.021 19.7801 713.06 20.39H713.05Z" fill="#EA4335"/>
<path d="M636.2 18.47V14.9H648.18C648.29 15.52 648.35 16.25 648.35 17.05C648.35 19.71 647.62 23.01 645.27 25.36C642.99 27.74 640.07 29.01 636.2 29.01C629.03 29.01 623 23.17 623 16.01C623 8.83 629.03 3 636.2 3C640.17 3 643 4.56 645.12 6.59L642.61 9.09C640.892 7.43162 638.588 6.51877 636.2 6.55C634.963 6.54855 633.738 6.79314 632.596 7.26954C631.455 7.74593 630.419 8.44461 629.55 9.32493C628.681 10.2053 627.995 11.2496 627.533 12.3973C627.072 13.545 626.843 14.773 626.86 16.01C626.86 21.25 630.96 25.47 636.2 25.47C637.416 25.5203 638.629 25.3149 639.761 24.867C640.893 24.4192 641.918 23.7388 642.77 22.87C643.77 21.86 644.43 20.42 644.69 18.47H636.19H636.2Z" fill="#4285F4"/>
</g>
</g>
<g clip-path="url(#clip6_1342_44835)">
<g clip-path="url(#clip7_1342_44835)">
<path d="M936.6 20.6501C936.613 21.7568 936.405 22.8551 935.987 23.8798C935.568 24.9046 934.949 25.8351 934.165 26.6164C933.381 27.3976 932.448 28.0138 931.422 28.4283C930.396 28.8429 929.297 29.0475 928.19 29.0301C927.084 29.0462 925.986 28.8406 924.961 28.4254C923.936 28.0102 923.004 27.3939 922.222 26.6128C921.439 25.8316 920.82 24.9016 920.402 23.8775C919.985 22.8534 919.777 21.756 919.79 20.6501C919.772 19.543 919.978 18.4438 920.394 17.4178C920.81 16.3918 921.428 15.4601 922.212 14.6781C922.996 13.8961 923.929 13.28 924.956 12.8662C925.983 12.4525 927.083 12.2498 928.19 12.2701C932.82 12.2701 936.59 15.7901 936.59 20.6501H936.6ZM932.91 20.6501C932.91 17.6301 930.72 15.5701 928.19 15.5701C925.65 15.5701 923.46 17.6301 923.46 20.6501C923.46 23.6301 925.65 25.7201 928.19 25.7201C930.72 25.7201 932.91 23.6201 932.91 20.6501Z" fill="#EA4335"/>
<path d="M954.73 20.65C954.743 21.7568 954.535 22.855 954.117 23.8798C953.698 24.9045 953.079 25.8351 952.295 26.6163C951.511 27.3976 950.578 28.0137 949.552 28.4283C948.526 28.8429 947.427 29.0475 946.32 29.03C945.214 29.0461 944.116 28.8405 943.091 28.4253C942.066 28.0102 941.134 27.3938 940.352 26.6127C939.569 25.8316 938.95 24.9015 938.532 23.8774C938.115 22.8533 937.907 21.7559 937.92 20.65C937.904 19.5433 938.11 18.4447 938.527 17.4193C938.943 16.394 939.562 15.4628 940.345 14.6811C941.129 13.8995 942.062 13.2832 943.088 12.869C944.114 12.4548 945.213 12.2511 946.32 12.27C950.95 12.27 954.72 15.79 954.72 20.65H954.73ZM951.05 20.65C951.05 17.63 948.85 15.57 946.32 15.57C943.78 15.57 941.59 17.63 941.59 20.65C941.59 23.63 943.79 25.72 946.32 25.72C948.86 25.72 951.05 23.62 951.05 20.65Z" fill="#FBBC05"/>
<path d="M972.1 12.77V27.82C972.1 34 968.45 36.53 964.14 36.53C962.55 36.5403 960.994 36.0756 959.67 35.1954C958.346 34.3153 957.316 33.0598 956.71 31.59L959.91 30.26C960.24 31.1195 960.819 31.8612 961.572 32.3902C962.325 32.9192 963.22 33.2116 964.14 33.23C966.9 33.23 968.61 31.53 968.61 28.33V27.12H968.48C967.927 27.7385 967.247 28.2289 966.485 28.5571C965.723 28.8852 964.899 29.0432 964.07 29.02C959.87 29.02 956.04 25.37 956.04 20.68C956.04 15.95 959.88 12.27 964.07 12.27C966.07 12.27 967.65 13.15 968.48 14.14H968.61V12.78H972.11L972.1 12.77ZM968.87 20.67C968.87 17.73 966.9 15.57 964.4 15.57C961.86 15.57 959.73 17.73 959.73 20.67C959.73 23.6 961.86 25.72 964.4 25.72C966.9 25.72 968.87 23.6 968.87 20.68V20.67Z" fill="#4285F4"/>
<path d="M977.86 3.95996V28.5H974.27V3.95996H977.86Z" fill="#34A853"/>
<path d="M991.85 23.4L994.71 25.3C993.944 26.4507 992.905 27.3931 991.685 28.0425C990.465 28.6918 989.102 29.0277 987.72 29.02C986.619 29.0351 985.526 28.828 984.506 28.4114C983.486 27.9947 982.561 27.3768 981.785 26.5947C981.01 25.8126 980.4 24.8822 979.992 23.8591C979.584 22.836 979.386 21.7412 979.41 20.64C979.41 15.66 982.99 12.26 987.31 12.26C991.66 12.26 993.79 15.72 994.48 17.59L994.86 18.55L983.66 23.18C984.004 23.9616 984.575 24.6216 985.299 25.0745C986.023 25.5275 986.867 25.7523 987.72 25.72C989.6 25.72 990.9 24.8 991.85 23.4ZM983.05 20.39L990.55 17.28C990.13 16.23 988.9 15.5 987.44 15.5C986.829 15.528 986.231 15.6773 985.678 15.9394C985.126 16.2014 984.632 16.5708 984.224 17.0261C983.816 17.4813 983.503 18.0133 983.303 18.5909C983.104 19.1685 983.021 19.7801 983.06 20.39H983.05Z" fill="#EA4335"/>
<path d="M906.2 18.47V14.9H918.18C918.29 15.52 918.35 16.25 918.35 17.05C918.35 19.71 917.62 23.01 915.27 25.36C912.99 27.74 910.07 29.01 906.2 29.01C899.03 29.01 893 23.17 893 16.01C893 8.83 899.03 3 906.2 3C910.17 3 913 4.56 915.12 6.59L912.61 9.09C910.892 7.43162 908.588 6.51877 906.2 6.55C904.963 6.54855 903.738 6.79314 902.596 7.26954C901.455 7.74593 900.419 8.44461 899.55 9.32493C898.681 10.2053 897.995 11.2496 897.533 12.3973C897.072 13.545 896.843 14.773 896.86 16.01C896.86 21.25 900.96 25.47 906.2 25.47C907.416 25.5203 908.629 25.3149 909.761 24.867C910.893 24.4192 911.918 23.7388 912.77 22.87C913.77 21.86 914.43 20.42 914.69 18.47H906.19H906.2Z" fill="#4285F4"/>
</g>
</g>
<g clip-path="url(#clip8_1342_44835)">
<path d="M100.54 108.93C100.52 108.75 100.36 108.67 100.24 108.66C100.13 108.64 97.78 108.62 97.78 108.62L95.61 106.5C95.42 106.3 95.05 106.36 94.89 106.4L93.89 106.71C93.7736 106.313 93.6196 105.928 93.43 105.56C92.73 104.21 91.71 103.51 90.46 103.51C90.38 103.51 90.28 103.51 90.2 103.53C89.9425 103.206 89.6112 102.947 89.2338 102.777C88.8563 102.606 88.4436 102.529 88.03 102.55C86.43 102.59 84.85 103.75 83.53 105.81C82.6315 107.24 82.0264 108.834 81.75 110.5C79.91 111.07 78.62 111.46 78.61 111.48C77.69 111.78 77.65 111.79 77.53 112.68C77.43 113.32 75.01 132.09 75.01 132.09L95.35 135.61L104.16 133.42C104.16 133.42 100.55 109.1 100.54 108.93ZM92.88 107.03L91.3 107.53C91.2927 106.536 91.1238 105.55 90.8 104.61C92.04 104.84 92.63 106.21 92.88 107.03ZM90.24 107.85L86.84 108.91C87.17 107.66 87.8 106.41 88.56 105.59C88.86 105.27 89.24 104.94 89.71 104.75C90.16 105.67 90.24 106.97 90.24 107.85ZM88.05 103.63C88.42 103.63 88.74 103.71 89.01 103.89C88.58 104.1 88.15 104.43 87.76 104.86C86.6756 106.119 85.9472 107.645 85.65 109.28L82.85 110.14C83.45 107.56 85.59 103.71 88.05 103.64V103.63Z" fill="#95BF47"/>
<path d="M100.25 108.66C100.13 108.64 97.78 108.62 97.78 108.62L95.61 106.5C95.5392 106.426 95.4423 106.383 95.34 106.38V135.6L104.15 133.41C104.15 133.41 100.55 109.11 100.54 108.93C100.524 108.86 100.487 108.796 100.433 108.747C100.379 108.699 100.312 108.669 100.24 108.66H100.25Z" fill="#5E8E3E"/>
<path d="M90.46 113.19L89.44 117.02C89.44 117.02 88.31 116.49 86.94 116.59C84.94 116.71 84.93 117.96 84.94 118.29C85.06 120.01 89.56 120.38 89.81 124.39C90.01 127.55 88.13 129.7 85.43 129.88C84.5212 129.96 83.6057 129.85 82.7416 129.557C81.8774 129.264 81.0835 128.795 80.41 128.18L81.1 125.26C81.1 125.26 82.9 126.61 84.32 126.53C84.4917 126.526 84.6608 126.488 84.8171 126.417C84.9733 126.345 85.1133 126.243 85.2285 126.115C85.3437 125.988 85.4316 125.839 85.4869 125.676C85.5422 125.513 85.5637 125.341 85.55 125.17C85.41 122.94 81.75 123.06 81.51 119.4C81.31 116.31 83.34 113.19 87.81 112.9C89.58 112.74 90.46 113.19 90.46 113.19Z" fill="white"/>
<path d="M116.1 121.36C115.08 120.81 114.55 120.34 114.55 119.7C114.55 118.87 115.27 118.35 116.43 118.35C117.75 118.35 118.93 118.89 118.93 118.89L119.86 116.04C119.86 116.04 119 115.38 116.48 115.38C112.97 115.38 110.52 117.39 110.52 120.22C110.52 121.82 111.66 123.06 113.18 123.94C114.41 124.64 114.84 125.13 114.84 125.87C114.84 126.63 114.24 127.24 113.08 127.24C111.38 127.24 109.78 126.36 109.78 126.36L108.78 129.21C108.78 129.21 110.27 130.21 112.75 130.21C116.37 130.21 118.97 128.43 118.97 125.23C118.99 123.49 117.67 122.26 116.09 121.36H116.1ZM130.51 115.34C128.74 115.34 127.33 116.18 126.25 117.47L126.2 117.45L127.74 109.35H123.7L119.8 129.93H123.82L125.17 122.9C125.7 120.24 127.07 118.6 128.35 118.6C129.25 118.6 129.6 119.2 129.6 120.09C129.6 120.63 129.55 121.32 129.43 121.86L127.9 129.91H131.93L133.51 121.59C133.69 120.71 133.81 119.66 133.81 118.97C133.81 116.73 132.59 115.34 130.51 115.34ZM142.92 115.34C138.08 115.34 134.87 119.71 134.87 124.6C134.87 127.73 136.81 130.23 140.42 130.23C145.17 130.23 148.39 125.97 148.39 120.97C148.37 118.09 146.67 115.34 142.92 115.34ZM140.92 127.14C139.56 127.14 138.97 125.97 138.97 124.52C138.97 122.22 140.17 118.44 142.36 118.44C143.78 118.44 144.26 119.68 144.26 120.87C144.26 123.35 143.06 127.14 140.93 127.14H140.92ZM158.67 115.34C155.96 115.34 154.41 117.72 154.41 117.72H154.35L154.59 115.55H151.03C150.819 117.339 150.545 119.12 150.21 120.89L147.41 135.62H151.44L152.56 129.66H152.63C152.63 129.66 153.45 130.19 155 130.19C159.73 130.19 162.81 125.34 162.81 120.44C162.83 117.76 161.62 115.34 158.67 115.34ZM154.82 127.2C153.77 127.2 153.16 126.61 153.16 126.61L153.83 122.84C154.29 120.34 155.6 118.66 157.01 118.66C158.24 118.66 158.61 119.79 158.61 120.89C158.61 123.49 157.07 127.19 154.82 127.19V127.2ZM168.58 109.57C168.274 109.57 167.97 109.631 167.688 109.75C167.406 109.868 167.15 110.042 166.936 110.261C166.721 110.48 166.553 110.74 166.441 111.024C166.328 111.309 166.273 111.614 166.28 111.92C166.28 113.11 167.03 113.93 168.17 113.93H168.23C169.48 113.93 170.57 113.09 170.59 111.59C170.59 110.41 169.81 109.57 168.58 109.57ZM162.95 129.93H166.98L169.71 115.67H165.65L162.95 129.93ZM179.95 115.63H177.15L177.29 114.97C177.53 113.6 178.35 112.37 179.68 112.37C180.4 112.37 180.97 112.57 180.97 112.57L181.75 109.42C181.75 109.42 181.05 109.07 179.56 109.07C178.13 109.07 176.71 109.47 175.61 110.41C174.24 111.59 173.6 113.27 173.27 114.97L173.15 115.63H171.27L170.69 118.66H172.56L170.43 129.93H174.46L176.59 118.66H179.36L179.96 115.63H179.95ZM189.65 115.67C189.65 115.67 187.12 122.02 185.99 125.47H185.93C185.85 124.37 184.93 115.67 184.93 115.67H180.71L183.14 128.78C183.19 129.08 183.16 129.25 183.06 129.45C182.53 130.42 181.775 131.25 180.86 131.87C180.11 132.42 179.26 132.77 178.58 133L179.7 136.42C180.52 136.25 182.2 135.58 183.64 134.23C185.48 132.51 187.18 129.86 188.92 126.24L193.84 115.67H189.64H189.65Z" fill="black"/>
</g>
<g clip-path="url(#clip9_1342_44835)">
<path d="M370.54 108.93C370.52 108.75 370.36 108.67 370.24 108.66C370.13 108.64 367.78 108.62 367.78 108.62L365.61 106.5C365.42 106.3 365.05 106.36 364.89 106.4L363.89 106.71C363.774 106.313 363.62 105.928 363.43 105.56C362.73 104.21 361.71 103.51 360.46 103.51C360.38 103.51 360.28 103.51 360.2 103.53C359.942 103.206 359.611 102.947 359.234 102.777C358.856 102.606 358.444 102.529 358.03 102.55C356.43 102.59 354.85 103.75 353.53 105.81C352.631 107.24 352.026 108.834 351.75 110.5C349.91 111.07 348.62 111.46 348.61 111.48C347.69 111.78 347.65 111.79 347.53 112.68C347.43 113.32 345.01 132.09 345.01 132.09L365.35 135.61L374.16 133.42C374.16 133.42 370.55 109.1 370.54 108.93ZM362.88 107.03L361.3 107.53C361.293 106.536 361.124 105.55 360.8 104.61C362.04 104.84 362.63 106.21 362.88 107.03ZM360.24 107.85L356.84 108.91C357.17 107.66 357.8 106.41 358.56 105.59C358.86 105.27 359.24 104.94 359.71 104.75C360.16 105.67 360.24 106.97 360.24 107.85ZM358.05 103.63C358.42 103.63 358.74 103.71 359.01 103.89C358.58 104.1 358.15 104.43 357.76 104.86C356.676 106.119 355.947 107.645 355.65 109.28L352.85 110.14C353.45 107.56 355.59 103.71 358.05 103.64V103.63Z" fill="#95BF47"/>
<path d="M370.25 108.66C370.13 108.64 367.78 108.62 367.78 108.62L365.61 106.5C365.539 106.426 365.442 106.383 365.34 106.38V135.6L374.15 133.41C374.15 133.41 370.55 109.11 370.54 108.93C370.524 108.86 370.487 108.796 370.433 108.747C370.379 108.699 370.312 108.669 370.24 108.66H370.25Z" fill="#5E8E3E"/>
<path d="M360.46 113.19L359.44 117.02C359.44 117.02 358.31 116.49 356.94 116.59C354.94 116.71 354.93 117.96 354.94 118.29C355.06 120.01 359.56 120.38 359.81 124.39C360.01 127.55 358.13 129.7 355.43 129.88C354.521 129.96 353.606 129.85 352.742 129.557C351.877 129.264 351.084 128.795 350.41 128.18L351.1 125.26C351.1 125.26 352.9 126.61 354.32 126.53C354.492 126.526 354.661 126.488 354.817 126.417C354.973 126.345 355.113 126.243 355.228 126.115C355.344 125.988 355.432 125.839 355.487 125.676C355.542 125.513 355.564 125.341 355.55 125.17C355.41 122.94 351.75 123.06 351.51 119.4C351.31 116.31 353.34 113.19 357.81 112.9C359.58 112.74 360.46 113.19 360.46 113.19Z" fill="white"/>
<path d="M386.1 121.36C385.08 120.81 384.55 120.34 384.55 119.7C384.55 118.87 385.27 118.35 386.43 118.35C387.75 118.35 388.93 118.89 388.93 118.89L389.86 116.04C389.86 116.04 389 115.38 386.48 115.38C382.97 115.38 380.52 117.39 380.52 120.22C380.52 121.82 381.66 123.06 383.18 123.94C384.41 124.64 384.84 125.13 384.84 125.87C384.84 126.63 384.24 127.24 383.08 127.24C381.38 127.24 379.78 126.36 379.78 126.36L378.78 129.21C378.78 129.21 380.27 130.21 382.75 130.21C386.37 130.21 388.97 128.43 388.97 125.23C388.99 123.49 387.67 122.26 386.09 121.36H386.1ZM400.51 115.34C398.74 115.34 397.33 116.18 396.25 117.47L396.2 117.45L397.74 109.35H393.7L389.8 129.93H393.82L395.17 122.9C395.7 120.24 397.07 118.6 398.35 118.6C399.25 118.6 399.6 119.2 399.6 120.09C399.6 120.63 399.55 121.32 399.43 121.86L397.9 129.91H401.93L403.51 121.59C403.69 120.71 403.81 119.66 403.81 118.97C403.81 116.73 402.59 115.34 400.51 115.34ZM412.92 115.34C408.08 115.34 404.87 119.71 404.87 124.6C404.87 127.73 406.81 130.23 410.42 130.23C415.17 130.23 418.39 125.97 418.39 120.97C418.37 118.09 416.67 115.34 412.92 115.34ZM410.92 127.14C409.56 127.14 408.97 125.97 408.97 124.52C408.97 122.22 410.17 118.44 412.36 118.44C413.78 118.44 414.26 119.68 414.26 120.87C414.26 123.35 413.06 127.14 410.93 127.14H410.92ZM428.67 115.34C425.96 115.34 424.41 117.72 424.41 117.72H424.35L424.59 115.55H421.03C420.819 117.339 420.545 119.12 420.21 120.89L417.41 135.62H421.44L422.56 129.66H422.63C422.63 129.66 423.45 130.19 425 130.19C429.73 130.19 432.81 125.34 432.81 120.44C432.83 117.76 431.62 115.34 428.67 115.34ZM424.82 127.2C423.77 127.2 423.16 126.61 423.16 126.61L423.83 122.84C424.29 120.34 425.6 118.66 427.01 118.66C428.24 118.66 428.61 119.79 428.61 120.89C428.61 123.49 427.07 127.19 424.82 127.19V127.2ZM438.58 109.57C438.274 109.57 437.97 109.631 437.688 109.75C437.406 109.868 437.15 110.042 436.936 110.261C436.721 110.48 436.553 110.74 436.441 111.024C436.328 111.309 436.273 111.614 436.28 111.92C436.28 113.11 437.03 113.93 438.17 113.93H438.23C439.48 113.93 440.57 113.09 440.59 111.59C440.59 110.41 439.81 109.57 438.58 109.57ZM432.95 129.93H436.98L439.71 115.67H435.65L432.95 129.93ZM449.95 115.63H447.15L447.29 114.97C447.53 113.6 448.35 112.37 449.68 112.37C450.4 112.37 450.97 112.57 450.97 112.57L451.75 109.42C451.75 109.42 451.05 109.07 449.56 109.07C448.13 109.07 446.71 109.47 445.61 110.41C444.24 111.59 443.6 113.27 443.27 114.97L443.15 115.63H441.27L440.69 118.66H442.56L440.43 129.93H444.46L446.59 118.66H449.36L449.96 115.63H449.95ZM459.65 115.67C459.65 115.67 457.12 122.02 455.99 125.47H455.93C455.85 124.37 454.93 115.67 454.93 115.67H450.71L453.14 128.78C453.19 129.08 453.16 129.25 453.06 129.45C452.53 130.42 451.775 131.25 450.86 131.87C450.11 132.42 449.26 132.77 448.58 133L449.7 136.42C450.52 136.25 452.2 135.58 453.64 134.23C455.48 132.51 457.18 129.86 458.92 126.24L463.84 115.67H459.64H459.65Z" fill="black"/>
</g>
<g clip-path="url(#clip10_1342_44835)">
<path d="M640.54 108.93C640.52 108.75 640.36 108.67 640.24 108.66C640.13 108.64 637.78 108.62 637.78 108.62L635.61 106.5C635.42 106.3 635.05 106.36 634.89 106.4L633.89 106.71C633.774 106.313 633.62 105.928 633.43 105.56C632.73 104.21 631.71 103.51 630.46 103.51C630.38 103.51 630.28 103.51 630.2 103.53C629.942 103.206 629.611 102.947 629.234 102.777C628.856 102.606 628.444 102.529 628.03 102.55C626.43 102.59 624.85 103.75 623.53 105.81C622.631 107.24 622.026 108.834 621.75 110.5C619.91 111.07 618.62 111.46 618.61 111.48C617.69 111.78 617.65 111.79 617.53 112.68C617.43 113.32 615.01 132.09 615.01 132.09L635.35 135.61L644.16 133.42C644.16 133.42 640.55 109.1 640.54 108.93ZM632.88 107.03L631.3 107.53C631.293 106.536 631.124 105.55 630.8 104.61C632.04 104.84 632.63 106.21 632.88 107.03ZM630.24 107.85L626.84 108.91C627.17 107.66 627.8 106.41 628.56 105.59C628.86 105.27 629.24 104.94 629.71 104.75C630.16 105.67 630.24 106.97 630.24 107.85ZM628.05 103.63C628.42 103.63 628.74 103.71 629.01 103.89C628.58 104.1 628.15 104.43 627.76 104.86C626.676 106.119 625.947 107.645 625.65 109.28L622.85 110.14C623.45 107.56 625.59 103.71 628.05 103.64V103.63Z" fill="#95BF47"/>
<path d="M640.25 108.66C640.13 108.64 637.78 108.62 637.78 108.62L635.61 106.5C635.539 106.426 635.442 106.383 635.34 106.38V135.6L644.15 133.41C644.15 133.41 640.55 109.11 640.54 108.93C640.524 108.86 640.487 108.796 640.433 108.747C640.379 108.699 640.312 108.669 640.24 108.66H640.25Z" fill="#5E8E3E"/>
<path d="M630.46 113.19L629.44 117.02C629.44 117.02 628.31 116.49 626.94 116.59C624.94 116.71 624.93 117.96 624.94 118.29C625.06 120.01 629.56 120.38 629.81 124.39C630.01 127.55 628.13 129.7 625.43 129.88C624.521 129.96 623.606 129.85 622.742 129.557C621.877 129.264 621.084 128.795 620.41 128.18L621.1 125.26C621.1 125.26 622.9 126.61 624.32 126.53C624.492 126.526 624.661 126.488 624.817 126.417C624.973 126.345 625.113 126.243 625.228 126.115C625.344 125.988 625.432 125.839 625.487 125.676C625.542 125.513 625.564 125.341 625.55 125.17C625.41 122.94 621.75 123.06 621.51 119.4C621.31 116.31 623.34 113.19 627.81 112.9C629.58 112.74 630.46 113.19 630.46 113.19Z" fill="white"/>
<path d="M656.1 121.36C655.08 120.81 654.55 120.34 654.55 119.7C654.55 118.87 655.27 118.35 656.43 118.35C657.75 118.35 658.93 118.89 658.93 118.89L659.86 116.04C659.86 116.04 659 115.38 656.48 115.38C652.97 115.38 650.52 117.39 650.52 120.22C650.52 121.82 651.66 123.06 653.18 123.94C654.41 124.64 654.84 125.13 654.84 125.87C654.84 126.63 654.24 127.24 653.08 127.24C651.38 127.24 649.78 126.36 649.78 126.36L648.78 129.21C648.78 129.21 650.27 130.21 652.75 130.21C656.37 130.21 658.97 128.43 658.97 125.23C658.99 123.49 657.67 122.26 656.09 121.36H656.1ZM670.51 115.34C668.74 115.34 667.33 116.18 666.25 117.47L666.2 117.45L667.74 109.35H663.7L659.8 129.93H663.82L665.17 122.9C665.7 120.24 667.07 118.6 668.35 118.6C669.25 118.6 669.6 119.2 669.6 120.09C669.6 120.63 669.55 121.32 669.43 121.86L667.9 129.91H671.93L673.51 121.59C673.69 120.71 673.81 119.66 673.81 118.97C673.81 116.73 672.59 115.34 670.51 115.34ZM682.92 115.34C678.08 115.34 674.87 119.71 674.87 124.6C674.87 127.73 676.81 130.23 680.42 130.23C685.17 130.23 688.39 125.97 688.39 120.97C688.37 118.09 686.67 115.34 682.92 115.34ZM680.92 127.14C679.56 127.14 678.97 125.97 678.97 124.52C678.97 122.22 680.17 118.44 682.36 118.44C683.78 118.44 684.26 119.68 684.26 120.87C684.26 123.35 683.06 127.14 680.93 127.14H680.92ZM698.67 115.34C695.96 115.34 694.41 117.72 694.41 117.72H694.35L694.59 115.55H691.03C690.819 117.339 690.545 119.12 690.21 120.89L687.41 135.62H691.44L692.56 129.66H692.63C692.63 129.66 693.45 130.19 695 130.19C699.73 130.19 702.81 125.34 702.81 120.44C702.83 117.76 701.62 115.34 698.67 115.34ZM694.82 127.2C693.77 127.2 693.16 126.61 693.16 126.61L693.83 122.84C694.29 120.34 695.6 118.66 697.01 118.66C698.24 118.66 698.61 119.79 698.61 120.89C698.61 123.49 697.07 127.19 694.82 127.19V127.2ZM708.58 109.57C708.274 109.57 707.97 109.631 707.688 109.75C707.406 109.868 707.15 110.042 706.936 110.261C706.721 110.48 706.553 110.74 706.441 111.024C706.328 111.309 706.273 111.614 706.28 111.92C706.28 113.11 707.03 113.93 708.17 113.93H708.23C709.48 113.93 710.57 113.09 710.59 111.59C710.59 110.41 709.81 109.57 708.58 109.57ZM702.95 129.93H706.98L709.71 115.67H705.65L702.95 129.93ZM719.95 115.63H717.15L717.29 114.97C717.53 113.6 718.35 112.37 719.68 112.37C720.4 112.37 720.97 112.57 720.97 112.57L721.75 109.42C721.75 109.42 721.05 109.07 719.56 109.07C718.13 109.07 716.71 109.47 715.61 110.41C714.24 111.59 713.6 113.27 713.27 114.97L713.15 115.63H711.27L710.69 118.66H712.56L710.43 129.93H714.46L716.59 118.66H719.36L719.96 115.63H719.95ZM729.65 115.67C729.65 115.67 727.12 122.02 725.99 125.47H725.93C725.85 124.37 724.93 115.67 724.93 115.67H720.71L723.14 128.78C723.19 129.08 723.16 129.25 723.06 129.45C722.53 130.42 721.775 131.25 720.86 131.87C720.11 132.42 719.26 132.77 718.58 133L719.7 136.42C720.52 136.25 722.2 135.58 723.64 134.23C725.48 132.51 727.18 129.86 728.92 126.24L733.84 115.67H729.64H729.65Z" fill="black"/>
</g>
<g clip-path="url(#clip11_1342_44835)">
<path d="M910.54 108.93C910.52 108.75 910.36 108.67 910.24 108.66C910.13 108.64 907.78 108.62 907.78 108.62L905.61 106.5C905.42 106.3 905.05 106.36 904.89 106.4L903.89 106.71C903.774 106.313 903.62 105.928 903.43 105.56C902.73 104.21 901.71 103.51 900.46 103.51C900.38 103.51 900.28 103.51 900.2 103.53C899.943 103.206 899.611 102.947 899.234 102.777C898.856 102.606 898.444 102.529 898.03 102.55C896.43 102.59 894.85 103.75 893.53 105.81C892.631 107.24 892.026 108.834 891.75 110.5C889.91 111.07 888.62 111.46 888.61 111.48C887.69 111.78 887.65 111.79 887.53 112.68C887.43 113.32 885.01 132.09 885.01 132.09L905.35 135.61L914.16 133.42C914.16 133.42 910.55 109.1 910.54 108.93ZM902.88 107.03L901.3 107.53C901.293 106.536 901.124 105.55 900.8 104.61C902.04 104.84 902.63 106.21 902.88 107.03ZM900.24 107.85L896.84 108.91C897.17 107.66 897.8 106.41 898.56 105.59C898.86 105.27 899.24 104.94 899.71 104.75C900.16 105.67 900.24 106.97 900.24 107.85ZM898.05 103.63C898.42 103.63 898.74 103.71 899.01 103.89C898.58 104.1 898.15 104.43 897.76 104.86C896.676 106.119 895.947 107.645 895.65 109.28L892.85 110.14C893.45 107.56 895.59 103.71 898.05 103.64V103.63Z" fill="#95BF47"/>
<path d="M910.25 108.66C910.13 108.64 907.78 108.62 907.78 108.62L905.61 106.5C905.539 106.426 905.442 106.383 905.34 106.38V135.6L914.15 133.41C914.15 133.41 910.55 109.11 910.54 108.93C910.524 108.86 910.487 108.796 910.433 108.747C910.379 108.699 910.312 108.669 910.24 108.66H910.25Z" fill="#5E8E3E"/>
<path d="M900.46 113.19L899.44 117.02C899.44 117.02 898.31 116.49 896.94 116.59C894.94 116.71 894.93 117.96 894.94 118.29C895.06 120.01 899.56 120.38 899.81 124.39C900.01 127.55 898.13 129.7 895.43 129.88C894.521 129.96 893.606 129.85 892.742 129.557C891.877 129.264 891.084 128.795 890.41 128.18L891.1 125.26C891.1 125.26 892.9 126.61 894.32 126.53C894.492 126.526 894.661 126.488 894.817 126.417C894.973 126.345 895.113 126.243 895.228 126.115C895.344 125.988 895.432 125.839 895.487 125.676C895.542 125.513 895.564 125.341 895.55 125.17C895.41 122.94 891.75 123.06 891.51 119.4C891.31 116.31 893.34 113.19 897.81 112.9C899.58 112.74 900.46 113.19 900.46 113.19Z" fill="white"/>
<path d="M926.1 121.36C925.08 120.81 924.55 120.34 924.55 119.7C924.55 118.87 925.27 118.35 926.43 118.35C927.75 118.35 928.93 118.89 928.93 118.89L929.86 116.04C929.86 116.04 929 115.38 926.48 115.38C922.97 115.38 920.52 117.39 920.52 120.22C920.52 121.82 921.66 123.06 923.18 123.94C924.41 124.64 924.84 125.13 924.84 125.87C924.84 126.63 924.24 127.24 923.08 127.24C921.38 127.24 919.78 126.36 919.78 126.36L918.78 129.21C918.78 129.21 920.27 130.21 922.75 130.21C926.37 130.21 928.97 128.43 928.97 125.23C928.99 123.49 927.67 122.26 926.09 121.36H926.1ZM940.51 115.34C938.74 115.34 937.33 116.18 936.25 117.47L936.2 117.45L937.74 109.35H933.7L929.8 129.93H933.82L935.17 122.9C935.7 120.24 937.07 118.6 938.35 118.6C939.25 118.6 939.6 119.2 939.6 120.09C939.6 120.63 939.55 121.32 939.43 121.86L937.9 129.91H941.93L943.51 121.59C943.69 120.71 943.81 119.66 943.81 118.97C943.81 116.73 942.59 115.34 940.51 115.34ZM952.92 115.34C948.08 115.34 944.87 119.71 944.87 124.6C944.87 127.73 946.81 130.23 950.42 130.23C955.17 130.23 958.39 125.97 958.39 120.97C958.37 118.09 956.67 115.34 952.92 115.34ZM950.92 127.14C949.56 127.14 948.97 125.97 948.97 124.52C948.97 122.22 950.17 118.44 952.36 118.44C953.78 118.44 954.26 119.68 954.26 120.87C954.26 123.35 953.06 127.14 950.93 127.14H950.92ZM968.67 115.34C965.96 115.34 964.41 117.72 964.41 117.72H964.35L964.59 115.55H961.03C960.819 117.339 960.545 119.12 960.21 120.89L957.41 135.62H961.44L962.56 129.66H962.63C962.63 129.66 963.45 130.19 965 130.19C969.73 130.19 972.81 125.34 972.81 120.44C972.83 117.76 971.62 115.34 968.67 115.34ZM964.82 127.2C963.77 127.2 963.16 126.61 963.16 126.61L963.83 122.84C964.29 120.34 965.6 118.66 967.01 118.66C968.24 118.66 968.61 119.79 968.61 120.89C968.61 123.49 967.07 127.19 964.82 127.19V127.2ZM978.58 109.57C978.274 109.57 977.97 109.631 977.688 109.75C977.406 109.868 977.15 110.042 976.936 110.261C976.721 110.48 976.553 110.74 976.441 111.024C976.328 111.309 976.273 111.614 976.28 111.92C976.28 113.11 977.03 113.93 978.17 113.93H978.23C979.48 113.93 980.57 113.09 980.59 111.59C980.59 110.41 979.81 109.57 978.58 109.57ZM972.95 129.93H976.98L979.71 115.67H975.65L972.95 129.93ZM989.95 115.63H987.15L987.29 114.97C987.53 113.6 988.35 112.37 989.68 112.37C990.4 112.37 990.97 112.57 990.97 112.57L991.75 109.42C991.75 109.42 991.05 109.07 989.56 109.07C988.13 109.07 986.71 109.47 985.61 110.41C984.24 111.59 983.6 113.27 983.27 114.97L983.15 115.63H981.27L980.69 118.66H982.56L980.43 129.93H984.46L986.59 118.66H989.36L989.96 115.63H989.95ZM999.65 115.67C999.65 115.67 997.12 122.02 995.99 125.47H995.93C995.85 124.37 994.93 115.67 994.93 115.67H990.71L993.14 128.78C993.19 129.08 993.16 129.25 993.06 129.45C992.53 130.42 991.775 131.25 990.86 131.87C990.11 132.42 989.26 132.77 988.58 133L989.7 136.42C990.52 136.25 992.2 135.58 993.64 134.23C995.48 132.51 997.18 129.86 998.92 126.24L1003.84 115.67H999.64H999.65Z" fill="black"/>
</g>
<defs>
<linearGradient id="paint0_linear_1342_44835" x1="270.5" y1="0.5" x2="270.5" y2="250.5" gradientUnits="userSpaceOnUse">
<stop stop-color="#424770" stop-opacity="0.09"/>
<stop offset="0.5" stop-color="#424770" stop-opacity="0.09"/>
<stop offset="0.5" stop-opacity="0"/>
<stop offset="1" stop-opacity="0"/>
</linearGradient>
<linearGradient id="paint1_linear_1342_44835" x1="540.5" y1="0.5" x2="540.5" y2="250.5" gradientUnits="userSpaceOnUse">
<stop stop-color="#424770" stop-opacity="0.09"/>
<stop offset="0.5" stop-color="#424770" stop-opacity="0.09"/>
<stop offset="0.5" stop-opacity="0"/>
<stop offset="1" stop-opacity="0"/>
</linearGradient>
<linearGradient id="paint2_linear_1342_44835" x1="810.5" y1="0.5" x2="810.5" y2="250.5" gradientUnits="userSpaceOnUse">
<stop stop-color="#424770" stop-opacity="0.09"/>
<stop offset="0.5" stop-color="#424770" stop-opacity="0.09"/>
<stop offset="0.5" stop-opacity="0"/>
<stop offset="1" stop-opacity="0"/>
</linearGradient>
<clipPath id="clip0_1342_44835">
<rect width="200" height="40" fill="white" transform="translate(34 0.5)"/>
</clipPath>
<clipPath id="clip1_1342_44835">
<rect width="200" height="40" fill="white" transform="translate(34 1)"/>
</clipPath>
<clipPath id="clip2_1342_44835">
<rect width="200" height="40" fill="white" transform="translate(304 0.5)"/>
</clipPath>
<clipPath id="clip3_1342_44835">
<rect width="200" height="40" fill="white" transform="translate(304 -1)"/>
</clipPath>
<clipPath id="clip4_1342_44835">
<rect width="200" height="40" fill="white" transform="translate(574 0.5)"/>
</clipPath>
<clipPath id="clip5_1342_44835">
<rect width="200" height="40" fill="white" transform="translate(574 -1)"/>
</clipPath>
<clipPath id="clip6_1342_44835">
<rect width="200" height="40" fill="white" transform="translate(844 0.5)"/>
</clipPath>
<clipPath id="clip7_1342_44835">
<rect width="200" height="40" fill="white" transform="translate(844 -1)"/>
</clipPath>
<clipPath id="clip8_1342_44835">
<rect width="200" height="40" fill="white" transform="translate(34 100.5)"/>
</clipPath>
<clipPath id="clip9_1342_44835">
<rect width="200" height="40" fill="white" transform="translate(304 100.5)"/>
</clipPath>
<clipPath id="clip10_1342_44835">
<rect width="200" height="40" fill="white" transform="translate(574 100.5)"/>
</clipPath>
<clipPath id="clip11_1342_44835">
<rect width="200" height="40" fill="white" transform="translate(844 100.5)"/>
</clipPath>
</defs>
</svg>
