<svg width="57" height="27" viewBox="0 0 57 27" fill="none" xmlns="http://www.w3.org/2000/svg">
<rect y="0.733154" width="56.554" height="26.1018" fill="#EFEFEF"/>
<path fill-rule="evenodd" clip-rule="evenodd" d="M24.4703 12.9683C24.4703 10.7252 26.3056 8.88989 28.5487 8.88989C30.7919 8.88989 32.6272 10.7252 32.6272 12.9683C32.6272 15.9863 28.9158 18.5149 28.7935 18.5965C28.7119 18.6373 28.6303 18.6781 28.5487 18.6781C28.4672 18.6781 28.3856 18.6373 28.304 18.5965C28.1817 18.5149 24.4703 15.9863 24.4703 12.9683ZM25.2862 12.9683C25.2862 15.1707 27.774 17.2099 28.5489 17.7808C29.3238 17.2099 31.8117 15.1707 31.8117 12.9683C31.8117 11.1738 30.3434 9.70559 28.5489 9.70559C26.7544 9.70559 25.2862 11.1738 25.2862 12.9683ZM28.5489 11.3369C27.6516 11.3369 26.9175 12.071 26.9175 12.9683C26.9175 13.8655 27.6516 14.5996 28.5489 14.5996C29.4461 14.5996 30.1802 13.8655 30.1802 12.9683C30.1802 12.071 29.4461 11.3369 28.5489 11.3369ZM27.7331 12.9682C27.7331 13.4168 28.1001 13.7839 28.5487 13.7839C28.9974 13.7839 29.3644 13.4168 29.3644 12.9682C29.3644 12.5196 28.9974 12.1525 28.5487 12.1525C28.1001 12.1525 27.7331 12.5196 27.7331 12.9682Z" fill="#212121"/>
</svg>
