<svg width="57" height="27" viewBox="0 0 57 27" fill="none" xmlns="http://www.w3.org/2000/svg">
<rect y="0.325684" width="56.554" height="26.1018" fill="#EFEFEF"/>
<path fill-rule="evenodd" clip-rule="evenodd" d="M34.7648 12.5445L33.2965 11.0763C33.1987 10.9784 33.1008 10.9295 32.954 10.9295H31.4857V8.97183C31.4857 8.67819 31.29 8.48242 30.9963 8.48242H23.6552C23.3615 8.48242 23.1658 8.67819 23.1658 8.97183V15.3342C23.1658 15.6278 23.3615 15.8236 23.6552 15.8236H24.3404C24.1935 16.0683 24.1446 16.313 24.1446 16.5577C24.1446 17.4876 24.9276 18.2706 25.8575 18.2706C26.7874 18.2706 27.5705 17.4876 27.5705 16.5577C27.5705 16.313 27.5215 16.0683 27.3747 15.8236H30.6537L30.6537 15.8236C30.5559 16.0683 30.458 16.313 30.458 16.5577C30.458 17.4876 31.241 18.2706 32.1709 18.2706C33.1008 18.2706 33.8838 17.4876 33.8838 16.5577C33.8838 16.313 33.8349 16.0683 33.6881 15.8236H34.4222C34.7158 15.8236 34.9116 15.6278 34.9116 15.3342V12.8871C34.9116 12.7403 34.8627 12.6424 34.7648 12.5445ZM24.1441 9.46122H30.5064V11.4189V14.8447H24.1441V9.46122ZM25.8569 17.2918C26.2484 17.2918 26.591 16.9492 26.591 16.5577C26.591 16.1661 26.2484 15.8235 25.8569 15.8235C25.4654 15.8235 25.1228 16.1661 25.1228 16.5577C25.1228 16.9492 25.4654 17.2918 25.8569 17.2918ZM32.9534 16.5577C32.9534 16.9492 32.6108 17.2918 32.2193 17.2918C31.8277 17.2918 31.4851 16.9492 31.4851 16.5577C31.4851 16.1661 31.8277 15.8235 32.2193 15.8235C32.6108 15.8235 32.9534 16.1661 32.9534 16.5577ZM31.4851 14.8447H33.9322V13.0828L32.7576 11.9083H31.4851V14.8447Z" fill="#212121"/>
<rect x="22.6762" y="10.9294" width="4.89409" height="7.34114" fill="#EFEFEF"/>
<mask id="path-4-outside-1_1342_44756" maskUnits="userSpaceOnUse" x="20.7516" y="10.9082" width="7" height="8" fill="black">
<rect fill="white" x="20.7516" y="10.9082" width="7" height="8"/>
<path fill-rule="evenodd" clip-rule="evenodd" d="M22.8391 13.2677C22.8391 12.5064 23.4373 11.9082 24.1986 11.9082C24.9599 11.9082 25.5581 12.5064 25.5581 13.2677C25.5581 14.029 24.9599 14.6271 24.1986 14.6271C23.4373 14.6271 22.8391 14.029 22.8391 13.2677ZM26.6457 16.911V17.4548C26.6457 17.618 26.537 17.7267 26.3738 17.7267C26.2107 17.7267 26.102 17.618 26.102 17.4548V16.911C26.102 16.4488 25.7485 16.0954 25.2863 16.0954H23.1111C22.6489 16.0954 22.2954 16.4488 22.2954 16.911V17.4548C22.2954 17.618 22.1867 17.7267 22.0235 17.7267C21.8604 17.7267 21.7516 17.618 21.7516 17.4548V16.911C21.7516 16.1497 22.3498 15.5516 23.1111 15.5516H25.2863C26.0476 15.5516 26.6457 16.1497 26.6457 16.911ZM24.1989 14.0833C23.7366 14.0833 23.3832 13.7298 23.3832 13.2676C23.3832 12.8054 23.7366 12.4519 24.1989 12.4519C24.6611 12.4519 25.0145 12.8054 25.0145 13.2676C25.0145 13.7298 24.6611 14.0833 24.1989 14.0833Z"/>
</mask>
<path fill-rule="evenodd" clip-rule="evenodd" d="M22.8391 13.2677C22.8391 12.5064 23.4373 11.9082 24.1986 11.9082C24.9599 11.9082 25.5581 12.5064 25.5581 13.2677C25.5581 14.029 24.9599 14.6271 24.1986 14.6271C23.4373 14.6271 22.8391 14.029 22.8391 13.2677ZM26.6457 16.911V17.4548C26.6457 17.618 26.537 17.7267 26.3738 17.7267C26.2107 17.7267 26.102 17.618 26.102 17.4548V16.911C26.102 16.4488 25.7485 16.0954 25.2863 16.0954H23.1111C22.6489 16.0954 22.2954 16.4488 22.2954 16.911V17.4548C22.2954 17.618 22.1867 17.7267 22.0235 17.7267C21.8604 17.7267 21.7516 17.618 21.7516 17.4548V16.911C21.7516 16.1497 22.3498 15.5516 23.1111 15.5516H25.2863C26.0476 15.5516 26.6457 16.1497 26.6457 16.911ZM24.1989 14.0833C23.7366 14.0833 23.3832 13.7298 23.3832 13.2676C23.3832 12.8054 23.7366 12.4519 24.1989 12.4519C24.6611 12.4519 25.0145 12.8054 25.0145 13.2676C25.0145 13.7298 24.6611 14.0833 24.1989 14.0833Z" fill="#212121"/>
<path d="M24.1986 11.6907C23.3172 11.6907 22.6216 12.3862 22.6216 13.2677H23.0566C23.0566 12.6265 23.5574 12.1257 24.1986 12.1257V11.6907ZM25.7756 13.2677C25.7756 12.3862 25.08 11.6907 24.1986 11.6907V12.1257C24.8398 12.1257 25.3405 12.6265 25.3405 13.2677H25.7756ZM24.1986 14.8447C25.08 14.8447 25.7756 14.1491 25.7756 13.2677H25.3405C25.3405 13.9088 24.8398 14.4096 24.1986 14.4096V14.8447ZM22.6216 13.2677C22.6216 14.1491 23.3172 14.8447 24.1986 14.8447V14.4096C23.5574 14.4096 23.0566 13.9088 23.0566 13.2677H22.6216ZM26.8633 17.4548V16.911H26.4282V17.4548H26.8633ZM26.3738 17.9442C26.5048 17.9442 26.6309 17.8996 26.7248 17.8058C26.8186 17.7119 26.8633 17.5858 26.8633 17.4548H26.4282C26.4282 17.487 26.4185 17.4968 26.4172 17.4981C26.4159 17.4994 26.406 17.5092 26.3738 17.5092V17.9442ZM25.8844 17.4548C25.8844 17.5858 25.9291 17.7119 26.0229 17.8058C26.1168 17.8996 26.2428 17.9442 26.3738 17.9442V17.5092C26.3417 17.5092 26.3318 17.4994 26.3305 17.4981C26.3292 17.4968 26.3195 17.487 26.3195 17.4548H25.8844ZM25.8844 16.911V17.4548H26.3195V16.911H25.8844ZM25.2863 16.3129C25.6284 16.3129 25.8844 16.5689 25.8844 16.911H26.3195C26.3195 16.3287 25.8686 15.8778 25.2863 15.8778V16.3129ZM23.1111 16.3129H25.2863V15.8778H23.1111V16.3129ZM22.513 16.911C22.513 16.5689 22.769 16.3129 23.1111 16.3129V15.8778C22.5288 15.8778 22.0779 16.3287 22.0779 16.911H22.513ZM22.513 17.4548V16.911H22.0779V17.4548H22.513ZM22.0235 17.9442C22.1545 17.9442 22.2806 17.8996 22.3745 17.8058C22.4683 17.7119 22.513 17.5858 22.513 17.4548H22.0779C22.0779 17.487 22.0682 17.4968 22.0669 17.4981C22.0656 17.4994 22.0557 17.5092 22.0235 17.5092V17.9442ZM21.5341 17.4548C21.5341 17.5858 21.5787 17.7119 21.6726 17.8058C21.7665 17.8996 21.8925 17.9442 22.0235 17.9442V17.5092C21.9914 17.5092 21.9815 17.4994 21.9802 17.4981C21.9789 17.4968 21.9692 17.487 21.9692 17.4548H21.5341ZM21.5341 16.911V17.4548H21.9692V16.911H21.5341ZM23.1111 15.334C22.2297 15.334 21.5341 16.0296 21.5341 16.911H21.9692C21.9692 16.2699 22.4699 15.7691 23.1111 15.7691V15.334ZM25.2863 15.334H23.1111V15.7691H25.2863V15.334ZM26.8633 16.911C26.8633 16.0296 26.1677 15.334 25.2863 15.334V15.7691C25.9274 15.7691 26.4282 16.2699 26.4282 16.911H26.8633ZM23.1657 13.2676C23.1657 13.85 23.6165 14.3008 24.1989 14.3008V13.8658C23.8568 13.8658 23.6007 13.6097 23.6007 13.2676H23.1657ZM24.1989 12.2344C23.6165 12.2344 23.1657 12.6853 23.1657 13.2676H23.6007C23.6007 12.9255 23.8568 12.6695 24.1989 12.6695V12.2344ZM25.2321 13.2676C25.2321 12.6853 24.7812 12.2344 24.1989 12.2344V12.6695C24.5409 12.6695 24.797 12.9255 24.797 13.2676H25.2321ZM24.1989 14.3008C24.7812 14.3008 25.2321 13.85 25.2321 13.2676H24.797C24.797 13.6097 24.5409 13.8658 24.1989 13.8658V14.3008Z" fill="#212121" mask="url(#path-4-outside-1_1342_44756)"/>
</svg>
