<svg width="57" height="27" viewBox="0 0 57 27" fill="none" xmlns="http://www.w3.org/2000/svg">
<rect y="0.223877" width="56.554" height="26.1018" fill="#EFEFEF"/>
<path fill-rule="evenodd" clip-rule="evenodd" d="M23.3831 13.2747C23.3831 10.5607 25.5632 8.38062 28.2772 8.38062C30.9912 8.38062 33.1713 10.5607 33.1713 13.2747C33.1713 15.9887 30.9912 18.1688 28.2772 18.1688C25.5632 18.1688 23.3831 15.9887 23.3831 13.2747ZM24.2726 13.2747C24.2726 15.4993 26.0523 17.279 28.2769 17.279C30.5015 17.279 32.2811 15.4993 32.2811 13.2747C32.2811 11.0501 30.5015 9.27044 28.2769 9.27044C26.0523 9.27044 24.2726 11.0501 24.2726 13.2747ZM30.0121 10.9611L27.2091 11.8954C27.0756 11.9399 26.9421 12.0734 26.8976 12.2069L25.9633 15.0544C25.9188 15.2323 25.9633 15.4103 26.0523 15.4993C26.1413 15.5883 26.2303 15.6328 26.3637 15.6328C26.4082 15.6328 26.4527 15.6328 26.4972 15.5883L29.3447 14.6539C29.4782 14.6094 29.5671 14.5205 29.6116 14.387L30.546 11.5395C30.5904 11.3615 30.546 11.1836 30.457 11.0946C30.368 10.9611 30.19 10.9166 30.0121 10.9611ZM27.0756 14.4315L28.8553 13.8531L29.4337 12.0735L27.654 12.6518L27.0756 14.4315Z" fill="#212121"/>
</svg>
