<svg width="57" height="27" viewBox="0 0 57 27" fill="none" xmlns="http://www.w3.org/2000/svg">
<rect y="0.427734" width="56.554" height="26.1018" fill="#EFEFEF"/>
<path fill-rule="evenodd" clip-rule="evenodd" d="M32.5022 10.4831L28.9084 8.71693C28.5491 8.54032 28.0999 8.54032 27.6956 8.71693L24.1018 10.4831C23.6526 10.7039 23.3831 11.1454 23.3831 11.6311V15.8257C23.3831 16.3114 23.6526 16.7971 24.1468 17.0178L27.7405 18.784C27.9202 18.8723 28.1448 18.9164 28.3245 18.9164C28.5491 18.9164 28.7288 18.8723 28.9084 18.784L32.5022 17.0178C32.9514 16.7971 33.2658 16.3555 33.2658 15.8257V11.6311C33.2658 11.1454 32.9963 10.7039 32.5022 10.4831ZM28.1446 9.46751C28.1895 9.42336 28.2793 9.42336 28.3243 9.42336C28.4141 9.42336 28.459 9.42336 28.5039 9.46751L31.8281 11.1012L30.5703 11.7194L27.0665 9.99736L28.1446 9.46751ZM24.5058 16.2672L27.8749 17.9009V13.5738L24.2812 11.8077V15.8698C24.2812 16.0023 24.371 16.1789 24.5058 16.2672ZM24.8205 11.1012L26.0783 10.483L29.5822 12.205L28.3244 12.8232L24.8205 11.1012ZM32.0976 16.2672C32.2773 16.1789 32.3672 16.0465 32.3672 15.8698V11.8077L28.7734 13.5738V17.9009L32.0976 16.2672Z" fill="#212121"/>
</svg>
