<svg width="57" height="27" viewBox="0 0 57 27" fill="none" xmlns="http://www.w3.org/2000/svg">
<rect y="0.12207" width="56.554" height="26.1018" fill="#EFEFEF"/>
<rect x="14.6823" y="3.38477" width="27.1894" height="19.5764" rx="9.78819" fill="#7085FA"/>
<path fill-rule="evenodd" clip-rule="evenodd" d="M24.5879 11.4057C24.5879 10.2637 25.5498 9.36646 26.774 9.36646C27.9982 9.36646 28.9601 10.2637 28.9601 11.4057C28.9601 12.5476 27.9982 13.4449 26.774 13.4449C25.5498 13.4449 24.5879 12.5476 24.5879 11.4057ZM30.709 16.2997V17.1154C30.709 17.3601 30.5341 17.5233 30.2718 17.5233C30.0094 17.5233 29.8345 17.3601 29.8345 17.1154V16.2997C29.8345 15.6064 29.2662 15.0762 28.5229 15.0762H25.0251C24.2819 15.0762 23.7135 15.6064 23.7135 16.2997V17.1154C23.7135 17.3601 23.5386 17.5233 23.2763 17.5233C23.0139 17.5233 22.839 17.3601 22.839 17.1154V16.2997C22.839 15.1578 23.8009 14.2605 25.0251 14.2605H28.5229C29.7471 14.2605 30.709 15.1578 30.709 16.2997ZM26.7739 12.6292C26.0306 12.6292 25.4623 12.099 25.4623 11.4057C25.4623 10.7124 26.0306 10.1822 26.7739 10.1822C27.5172 10.1822 28.0856 10.7124 28.0856 11.4057C28.0856 12.099 27.5172 12.6292 26.7739 12.6292ZM31.6708 14.342C31.4522 14.3013 31.1899 14.4236 31.1461 14.6275C31.1024 14.8315 31.2336 15.0762 31.4522 15.1169C32.0206 15.2393 32.4141 15.7287 32.4141 16.2997V17.1154C32.4141 17.3601 32.589 17.5232 32.8513 17.5232C33.1136 17.5232 33.2885 17.3601 33.2885 17.1154V16.2997C33.3322 15.3616 32.6764 14.546 31.6708 14.342ZM29.3975 9.73355C29.485 9.48884 29.7036 9.36649 29.9222 9.44806C31.1027 9.69276 31.8023 10.8347 31.4962 11.9767C31.3213 12.7108 30.7092 13.241 29.9222 13.4449H29.8348C29.6162 13.4449 29.4413 13.3225 29.3975 13.1186C29.3101 12.9147 29.485 12.67 29.7036 12.6292C30.1845 12.5069 30.5343 12.1806 30.6655 11.732C30.8404 11.0386 30.4032 10.3861 29.7036 10.223C29.485 10.1822 29.3538 9.93747 29.3975 9.73355Z" fill="white"/>
</svg>
