<svg width="57" height="27" viewBox="0 0 57 27" fill="none" xmlns="http://www.w3.org/2000/svg">
<rect y="0.631348" width="56.554" height="26.1018" fill="#EFEFEF"/>
<path fill-rule="evenodd" clip-rule="evenodd" d="M32.8497 8.85452C32.9832 8.76594 33.1611 8.76594 33.2946 8.85452C33.4281 8.9431 33.5171 9.07597 33.5171 9.25314V16.3396C33.5171 16.5168 33.4281 16.6496 33.2946 16.7382L30.1802 18.5098H30.1357H30.0912C30.0467 18.5541 30.0022 18.5541 29.9577 18.5541C29.8687 18.5541 29.8242 18.5541 29.7353 18.5098L26.3984 16.8268L23.5064 18.5098C23.3729 18.5984 23.195 18.5984 23.0615 18.5098C22.928 18.4213 22.839 18.2884 22.839 18.1112V11.0248C22.839 10.8476 22.928 10.7147 23.017 10.6261L26.1314 8.85452H26.1759H26.2204C26.3094 8.81023 26.3539 8.81023 26.3984 8.81023C26.4429 8.81023 26.4874 8.81023 26.5319 8.85452H26.5763L29.9577 10.5376L32.8497 8.85452ZM29.5127 11.2905L26.8432 9.96176V16.0738L29.5127 17.4026V11.2905ZM23.7287 11.2905L25.9533 10.0061V16.0739L23.7287 17.3583V11.2905ZM30.4025 17.3583L32.6271 16.0739V10.0061L30.4025 11.2905V17.3583Z" fill="#212121"/>
</svg>
