<svg width="57" height="27" viewBox="0 0 57 27" fill="none" xmlns="http://www.w3.org/2000/svg">
<rect y="0.529541" width="56.554" height="26.1018" fill="#EFEFEF"/>
<path fill-rule="evenodd" clip-rule="evenodd" d="M33.8944 12.7484L32.4262 11.2801C32.3283 11.1823 32.2304 11.1333 32.0836 11.1333H30.6154V9.17569C30.6154 8.88204 30.4196 8.68628 30.126 8.68628H22.7848C22.4912 8.68628 22.2954 8.88204 22.2954 9.17569V15.538C22.2954 15.8317 22.4912 16.0274 22.7848 16.0274H23.47C23.3232 16.2721 23.2742 16.5168 23.2742 16.7615C23.2742 17.6914 24.0573 18.4745 24.9872 18.4745C25.917 18.4745 26.7001 17.6914 26.7001 16.7615C26.7001 16.5168 26.6512 16.2721 26.5043 16.0274H29.7834L29.7834 16.0274C29.6855 16.2721 29.5876 16.5168 29.5876 16.7615C29.5876 17.6914 30.3707 18.4745 31.3005 18.4745C32.2304 18.4745 33.0135 17.6914 33.0135 16.7615C33.0135 16.5168 32.9645 16.2721 32.8177 16.0274H33.5518C33.8455 16.0274 34.0412 15.8317 34.0412 15.538V13.091C34.0412 12.9441 33.9923 12.8463 33.8944 12.7484ZM23.2741 9.66509H29.6364V11.6227V15.0486H23.2741V9.66509ZM24.9871 17.4956C25.3786 17.4956 25.7212 17.153 25.7212 16.7615C25.7212 16.37 25.3786 16.0274 24.9871 16.0274C24.5955 16.0274 24.2529 16.37 24.2529 16.7615C24.2529 17.153 24.5955 17.4956 24.9871 17.4956ZM32.0831 16.7615C32.0831 17.153 31.7405 17.4956 31.349 17.4956C30.9575 17.4956 30.6149 17.153 30.6149 16.7615C30.6149 16.37 30.9575 16.0274 31.349 16.0274C31.7405 16.0274 32.0831 16.37 32.0831 16.7615ZM30.6149 15.0486H33.0619V13.2867L31.8873 12.1121H30.6149V15.0486Z" fill="#212121"/>
</svg>
